<?xml version="1.0" encoding="UTF-8"?>
<svg xmlns="http://www.w3.org/2000/svg" xmlns:xlink="http://www.w3.org/1999/xlink" width="50px" height="50px" viewBox="0 0 50 50" version="1.1">
<g id="surface1">
<path style=" stroke:none;fill-rule:nonzero;fill:rgb(0%,0%,0%);fill-opacity:1;" d="M 9.652344 44.644531 C 14.03125 48.039062 19.410156 49.886719 24.953125 49.886719 C 31.257812 49.886719 37.003906 47.542969 41.390625 43.703125 C 41.445312 43.652344 41.421875 43.628906 41.367188 43.652344 C 39.398438 44.972656 33.789062 47.84375 24.953125 47.84375 C 17.277344 47.84375 12.425781 46.125 9.683594 44.597656 C 9.628906 44.570312 9.609375 44.613281 9.652344 44.644531 Z M 26.644531 45.914062 C 32.789062 45.914062 39.535156 44.246094 43.570312 40.933594 C 44.675781 40.03125 45.726562 38.824219 46.671875 37.214844 C 47.207031 36.277344 47.734375 35.179688 48.167969 34.089844 C 48.191406 34.039062 48.160156 34.015625 48.117188 34.074219 C 44.367188 39.597656 33.496094 43.042969 22.28125 43.042969 C 14.347656 43.042969 5.808594 40.503906 2.472656 35.660156 C 2.441406 35.621094 2.40625 35.636719 2.425781 35.6875 C 5.535156 42.300781 14.980469 45.914062 26.644531 45.914062 Z M 19.9375 34.945312 C 7.167969 34.945312 1.148438 28.996094 0.046875 24.9375 C 0.0390625 24.878906 0 24.886719 0 24.945312 C 0 26.3125 0.140625 28.078125 0.375 29.242188 C 0.480469 29.8125 0.945312 30.707031 1.628906 31.421875 C 4.71875 34.644531 12.4375 39.160156 25.78125 39.160156 C 43.976562 39.160156 48.136719 33.097656 48.984375 31.105469 C 49.59375 29.679688 49.902344 27.109375 49.902344 24.945312 C 49.902344 24.421875 49.894531 24 49.871094 23.59375 C 49.871094 23.519531 49.835938 23.519531 49.820312 23.585938 C 48.910156 28.460938 33.367188 34.945312 19.9375 34.945312 Z M 2.410156 14.242188 C 1.675781 15.691406 0.863281 18.148438 0.617188 19.410156 C 0.511719 19.953125 0.5625 20.214844 0.75 20.621094 C 2.277344 23.867188 10.027344 29.070312 28.085938 29.070312 C 39.101562 29.070312 47.664062 26.359375 49.046875 21.417969 C 49.300781 20.507812 49.316406 19.546875 48.992188 18.253906 C 48.625 16.8125 47.941406 15.128906 47.355469 13.941406 C 47.339844 13.898438 47.308594 13.90625 47.316406 13.957031 C 47.527344 20.433594 29.460938 24.609375 20.347656 24.609375 C 10.46875 24.609375 2.230469 20.679688 2.230469 15.707031 C 2.230469 15.226562 2.328125 14.753906 2.453125 14.257812 C 2.46875 14.210938 2.425781 14.203125 2.410156 14.242188 Z M 41.429688 6.289062 C 41.539062 6.453125 41.59375 6.625 41.59375 6.859375 C 41.59375 9.636719 33.105469 14.535156 19.605469 14.535156 C 9.683594 14.535156 7.828125 10.855469 7.828125 8.519531 C 7.828125 7.683594 8.148438 6.820312 8.855469 5.957031 C 8.894531 5.898438 8.863281 5.882812 8.8125 5.921875 C 7.527344 7.015625 6.347656 8.234375 5.304688 9.570312 C 4.808594 10.195312 4.5 10.75 4.5 11.082031 C 4.5 15.933594 16.65625 19.449219 28.035156 19.449219 C 40.152344 19.449219 45.558594 15.492188 45.558594 12.019531 C 45.558594 10.78125 45.078125 10.050781 43.839844 8.640625 C 43.035156 7.730469 42.277344 6.992188 41.472656 6.257812 C 41.429688 6.226562 41.40625 6.25 41.429688 6.289062 Z M 37.71875 3.515625 C 33.863281 1.203125 29.453125 -0.015625 24.953125 0 C 20.238281 0 15.765625 1.320312 12.011719 3.621094 C 10.890625 4.3125 10.253906 4.867188 10.253906 5.582031 C 10.253906 7.691406 15.171875 9.945312 23.894531 9.945312 C 32.527344 9.945312 39.21875 7.472656 39.21875 5.085938 C 39.21875 4.515625 38.71875 4.117188 37.71875 3.515625 Z M 37.71875 3.515625 "/>
</g>
</svg>
